<svg width="1440" height="906" viewBox="0 0 1440 906" fill="none" xmlns="http://www.w3.org/2000/svg">
<g clip-path="url(#clip0_78_59)">
<rect width="1440" height="906" fill="#030923"/>
<g filter="url(#filter0_f_78_59)">
<path d="M87.8743 730.224C96.0358 448.448 155.235 592.196 749.942 480.927C797.081 482.276 915.119 531.857 1010.16 719.387C1105.19 906.918 978.454 985.233 903.205 1000.95C808.069 965.673 601.994 948.639 538.783 1162.71C475.571 1376.78 271.199 1215.24 176.914 1107.71C144.514 1075.8 81.3451 955.644 87.8743 730.224Z" fill="#271A35"/>
<path d="M1306.92 402.607C1498.37 522.098 1388.37 510.824 1348.92 1021.8C1338.83 1058.23 1281.9 1130.88 1134.94 1130.14C987.981 1129.39 958.983 998.583 962.853 933.271C1005.53 872.831 1057.28 718.079 922.922 582.597C788.564 447.115 938.987 351.697 1030.99 320.923C1059.15 308.321 1153.76 307.015 1306.92 402.607Z" fill="#264491"/>
<path d="M409.23 830.088C552.53 1058.7 423.524 964.538 -41.7101 1264.51C-84.0182 1280.14 -214.636 1282.26 -398.641 1165.73C-582.647 1049.2 -512.665 941.532 -454.673 902.266C-351.901 896.797 -160.998 837.386 -219.569 643.491C-278.14 449.597 -11.5559 506.55 129.057 559.264C174.682 573.333 294.59 647.196 409.23 830.088Z" fill="#4B0026"/>
<path d="M1237.08 -476.797C1501.58 -579.388 1388.61 -467.29 1698.14 50.0616C1713.23 95.0495 1708.11 225.784 1566.92 388.819C1425.72 551.854 1309.05 462.973 1268.37 398.154C1268.14 294.618 1212.51 93.5893 991.8 117.76C771.091 141.93 850.245 -114.054 917.41 -245.068C935.802 -288.114 1025.49 -394.724 1237.08 -476.797Z" fill="#3962CB"/>
<path d="M826.284 1038.35C888.791 1305.24 795.82 1173.53 250.305 1320.36C204.525 1322.39 78.3525 1283.8 -60.0997 1113.21C-198.552 942.632 -95.9346 859.733 -27.3194 839.606C73.2032 866.281 276.116 867.941 283.588 661.187C291.06 454.432 528.423 592.791 646.171 687.816C685.373 715.698 776.279 824.84 826.284 1038.35Z" fill="#162857"/>
<g filter="url(#filter1_f_78_59)">
<path d="M-152.5 -41.5L699 184L289.5 243.5L-172 161L-152.5 -41.5Z" fill="#0E8E8E"/>
</g>
</g>
</g>
<defs>
<filter id="filter0_f_78_59" x="-817.481" y="-811.309" width="2821.42" height="2431.74" filterUnits="userSpaceOnUse" color-interpolation-filters="sRGB">
<feFlood flood-opacity="0" result="BackgroundImageFix"/>
<feBlend mode="normal" in="SourceGraphic" in2="BackgroundImageFix" result="shape"/>
<feGaussianBlur stdDeviation="150" result="effect1_foregroundBlur_78_59"/>
</filter>
<filter id="filter1_f_78_59" x="-372" y="-241.5" width="1271" height="685" filterUnits="userSpaceOnUse" color-interpolation-filters="sRGB">
<feFlood flood-opacity="0" result="BackgroundImageFix"/>
<feBlend mode="normal" in="SourceGraphic" in2="BackgroundImageFix" result="shape"/>
<feGaussianBlur stdDeviation="100" result="effect1_foregroundBlur_78_59"/>
</filter>
<clipPath id="clip0_78_59">
<rect width="1440" height="906" fill="white"/>
</clipPath>
</defs>
</svg>
