<svg width="1440" height="1593" viewBox="0 0 1440 1593" fill="none" xmlns="http://www.w3.org/2000/svg">
<g clip-path="url(#clip0_78_65)">
<rect width="1440" height="1593" fill="#030923"/>
<g filter="url(#filter0_f_78_65)">
<path d="M1079.37 1461.67C1445.03 1448.94 1269.04 1373.51 1511.9 603.759C1518.01 542.824 1473.56 390.598 1246.92 269.179C1020.29 147.759 897.936 312.224 865.089 409.633C894.858 532.361 882.573 798.661 595.28 882.044C307.987 965.426 482.819 1228.41 606.146 1349.47C641.999 1391.12 786.836 1471.86 1079.37 1461.67Z" fill="#271A35"/>
<path d="M113.917 64.6075C305.367 184.098 195.373 172.824 155.919 683.804C145.825 720.226 88.8981 792.883 -58.0603 792.138C-205.019 791.392 -234.017 660.583 -230.147 595.271C-187.475 534.831 -135.72 380.079 -270.078 244.597C-404.436 109.115 -254.013 13.6966 -162.007 -17.0771C-133.849 -29.6789 -39.2421 -30.9846 113.917 64.6075Z" fill="#264491"/>
<path d="M1721.23 -20.9121C1864.53 207.703 1735.52 113.538 1270.29 413.505C1227.98 429.136 1097.36 431.264 913.359 314.731C729.353 198.198 799.335 90.532 857.327 51.2655C960.099 45.7966 1151 -13.6146 1092.43 -207.509C1033.86 -401.404 1300.44 -344.45 1441.06 -291.737C1486.68 -277.667 1606.59 -203.804 1721.23 -20.9121Z" fill="#4B0026"/>
<path d="M10.0818 1039.2C274.577 936.612 161.614 1048.71 471.137 1566.06C486.228 1611.05 481.112 1741.78 339.916 1904.82C198.721 2067.85 82.0524 1978.97 41.3678 1914.15C41.1406 1810.62 -14.491 1609.59 -235.2 1633.76C-455.909 1657.93 -376.755 1401.95 -309.59 1270.93C-291.198 1227.89 -201.514 1121.28 10.0818 1039.2Z" fill="#2E163D"/>
<path d="M1475.28 1602.35C1537.79 1869.24 1444.82 1737.53 899.305 1884.36C853.525 1886.39 727.352 1847.8 588.9 1677.21C450.448 1506.63 553.065 1423.73 621.681 1403.61C722.203 1430.28 925.116 1431.94 932.588 1225.19C940.06 1018.43 1177.42 1156.79 1295.17 1251.82C1334.37 1279.7 1425.28 1388.84 1475.28 1602.35Z" fill="#162857"/>
<g filter="url(#filter1_f_78_65)">
<path d="M-75.5 281.5L776 507L366.5 566.5L-95 484L-75.5 281.5Z" fill="#0E8E8E"/>
</g>
</g>
</g>
<defs>
<filter id="filter0_f_78_65" x="-680.355" y="-642.389" width="2757.03" height="2939.77" filterUnits="userSpaceOnUse" color-interpolation-filters="sRGB">
<feFlood flood-opacity="0" result="BackgroundImageFix"/>
<feBlend mode="normal" in="SourceGraphic" in2="BackgroundImageFix" result="shape"/>
<feGaussianBlur stdDeviation="150" result="effect1_foregroundBlur_78_65"/>
</filter>
<filter id="filter1_f_78_65" x="-295" y="81.5" width="1271" height="685" filterUnits="userSpaceOnUse" color-interpolation-filters="sRGB">
<feFlood flood-opacity="0" result="BackgroundImageFix"/>
<feBlend mode="normal" in="SourceGraphic" in2="BackgroundImageFix" result="shape"/>
<feGaussianBlur stdDeviation="100" result="effect1_foregroundBlur_78_65"/>
</filter>
<clipPath id="clip0_78_65">
<rect width="1440" height="1593" fill="white"/>
</clipPath>
</defs>
</svg>
