<svg width="82" height="66" viewBox="0 0 82 66" fill="none" xmlns="http://www.w3.org/2000/svg">
<path d="M35.7697 65.5124L28.0069 63.2599C27.1924 63.0308 26.7343 62.1782 26.9633 61.3638L44.3342 1.52656C44.5633 0.712098 45.4159 0.253966 46.2304 0.483032L53.9931 2.73552C54.8076 2.96458 55.2657 3.81722 55.0367 4.63168L37.6658 64.4689C37.424 65.2833 36.5841 65.7542 35.7697 65.5124ZM21.2621 51.2339L26.7979 45.3291C27.3833 44.7055 27.3451 43.7129 26.6961 43.1403L15.1664 32.9977L26.6961 22.8552C27.3451 22.2825 27.396 21.2899 26.7979 20.6663L21.2621 14.7615C20.6895 14.1507 19.7223 14.1125 19.0987 14.6979L0.760692 31.8778C0.11167 32.476 0.11167 33.5068 0.760692 34.1049L19.0987 51.2976C19.7223 51.883 20.6895 51.8575 21.2621 51.2339ZM62.9013 51.3103L81.2393 34.1176C81.8883 33.5195 81.8883 32.4887 81.2393 31.8906L62.9013 14.6851C62.2904 14.1125 61.3233 14.1379 60.7379 14.7488L55.2021 20.6536C54.6167 21.2772 54.6549 22.2698 55.3039 22.8424L66.8336 32.9977L55.3039 43.1403C54.6549 43.7129 54.604 44.7055 55.2021 45.3291L60.7379 51.2339C61.3105 51.8575 62.2777 51.883 62.9013 51.3103Z" fill="url(#paint0_linear_87_209)"/>
<defs>
<linearGradient id="paint0_linear_87_209" x1="41" y1="0.424133" x2="41" y2="65.5759" gradientUnits="userSpaceOnUse">
<stop stop-color="#AC75FF"/>
<stop offset="0.5" stop-color="#09ACBE"/>
<stop offset="1" stop-color="#304C9D"/>
</linearGradient>
</defs>
</svg>
