<svg width="27" height="27" viewBox="0 0 27 27" fill="none" xmlns="http://www.w3.org/2000/svg">
<path d="M24.1071 0H2.89286C1.29576 0 0 1.29576 0 2.89286V24.1071C0 25.7042 1.29576 27 2.89286 27H24.1071C25.7042 27 27 25.7042 27 24.1071V2.89286C27 1.29576 25.7042 0 24.1071 0ZM16.7123 23.1248C16.206 23.2152 16.0192 22.9018 16.0192 22.6426C16.0192 22.3172 16.0312 20.6538 16.0312 19.3098C16.0312 18.3696 15.7179 17.773 15.3502 17.4596C17.5801 17.2125 19.9306 16.9051 19.9306 13.054C19.9306 11.9571 19.5388 11.4087 18.9 10.7036C19.0025 10.4444 19.346 9.37768 18.7975 7.99152C17.9598 7.73237 16.0433 9.07031 16.0433 9.07031C15.2478 8.84732 14.3859 8.73281 13.5362 8.73281C12.6864 8.73281 11.8246 8.84732 11.029 9.07031C11.029 9.07031 9.1125 7.73237 8.27478 7.99152C7.72634 9.37165 8.06384 10.4384 8.17232 10.7036C7.53348 11.4087 7.23214 11.9571 7.23214 13.054C7.23214 16.8871 9.48013 17.2125 11.71 17.4596C11.4208 17.7188 11.1616 18.1647 11.0712 18.8036C10.4987 19.0627 9.03415 19.5087 8.16027 17.9658C7.61183 17.0136 6.62344 16.9353 6.62344 16.9353C5.6471 16.9232 6.55714 17.55 6.55714 17.55C7.20804 17.8513 7.66607 19.0085 7.66607 19.0085C8.25067 20.7984 11.0471 20.1958 11.0471 20.1958C11.0471 21.0335 11.0592 22.3955 11.0592 22.6426C11.0592 22.9018 10.8783 23.2152 10.3661 23.1248C6.38839 21.7929 3.60402 18.008 3.60402 13.5844C3.60402 8.05179 7.83482 3.85112 13.3674 3.85112C18.9 3.85112 23.3839 8.05179 23.3839 13.5844C23.39 18.008 20.69 21.7989 16.7123 23.1248ZM10.8 19.4424C10.6855 19.4665 10.577 19.4183 10.565 19.34C10.5529 19.2496 10.6313 19.1712 10.7458 19.1471C10.8603 19.135 10.9688 19.1833 10.9808 19.2616C10.9989 19.34 10.9205 19.4183 10.8 19.4424ZM10.2275 19.3882C10.2275 19.4665 10.1371 19.5328 10.0165 19.5328C9.88393 19.5449 9.79353 19.4786 9.79353 19.3882C9.79353 19.3098 9.88393 19.2435 10.0045 19.2435C10.119 19.2315 10.2275 19.2978 10.2275 19.3882ZM9.40179 19.3219C9.37768 19.4002 9.25714 19.4364 9.15469 19.4002C9.04018 19.3761 8.96183 19.2857 8.98594 19.2074C9.01005 19.129 9.13058 19.0929 9.23304 19.117C9.35357 19.1531 9.43192 19.2435 9.40179 19.3219ZM8.66049 18.9964C8.60625 19.0627 8.49174 19.0507 8.40134 18.9603C8.31094 18.8819 8.28683 18.7674 8.3471 18.7132C8.40134 18.6469 8.51585 18.6589 8.60625 18.7493C8.6846 18.8277 8.71473 18.9482 8.66049 18.9964ZM8.11205 18.448C8.05781 18.4842 7.95536 18.448 7.88906 18.3576C7.82277 18.2672 7.82277 18.1647 7.88906 18.1225C7.95536 18.0683 8.05781 18.1105 8.11205 18.2009C8.17835 18.2913 8.17835 18.3998 8.11205 18.448ZM7.72031 17.8634C7.66607 17.9176 7.57567 17.8875 7.50938 17.8272C7.44308 17.7489 7.43103 17.6585 7.48527 17.6163C7.53951 17.5621 7.62991 17.5922 7.69621 17.6525C7.7625 17.7308 7.77455 17.8212 7.72031 17.8634ZM7.31652 17.4174C7.29241 17.4717 7.21406 17.4837 7.14777 17.4415C7.06942 17.4054 7.03326 17.3391 7.05737 17.2848C7.08147 17.2487 7.14777 17.2306 7.22612 17.2607C7.30446 17.3029 7.34063 17.3692 7.31652 17.4174Z" fill="black"/>
<path d="M24.1071 0H2.89286C1.29576 0 0 1.29576 0 2.89286V24.1071C0 25.7042 1.29576 27 2.89286 27H24.1071C25.7042 27 27 25.7042 27 24.1071V2.89286C27 1.29576 25.7042 0 24.1071 0ZM16.7123 23.1248C16.206 23.2152 16.0192 22.9018 16.0192 22.6426C16.0192 22.3172 16.0312 20.6538 16.0312 19.3098C16.0312 18.3696 15.7179 17.773 15.3502 17.4596C17.5801 17.2125 19.9306 16.9051 19.9306 13.054C19.9306 11.9571 19.5388 11.4087 18.9 10.7036C19.0025 10.4444 19.346 9.37768 18.7975 7.99152C17.9598 7.73237 16.0433 9.07031 16.0433 9.07031C15.2478 8.84732 14.3859 8.73281 13.5362 8.73281C12.6864 8.73281 11.8246 8.84732 11.029 9.07031C11.029 9.07031 9.1125 7.73237 8.27478 7.99152C7.72634 9.37165 8.06384 10.4384 8.17232 10.7036C7.53348 11.4087 7.23214 11.9571 7.23214 13.054C7.23214 16.8871 9.48013 17.2125 11.71 17.4596C11.4208 17.7188 11.1616 18.1647 11.0712 18.8036C10.4987 19.0627 9.03415 19.5087 8.16027 17.9658C7.61183 17.0136 6.62344 16.9353 6.62344 16.9353C5.6471 16.9232 6.55714 17.55 6.55714 17.55C7.20804 17.8513 7.66607 19.0085 7.66607 19.0085C8.25067 20.7984 11.0471 20.1958 11.0471 20.1958C11.0471 21.0335 11.0592 22.3955 11.0592 22.6426C11.0592 22.9018 10.8783 23.2152 10.3661 23.1248C6.38839 21.7929 3.60402 18.008 3.60402 13.5844C3.60402 8.05179 7.83482 3.85112 13.3674 3.85112C18.9 3.85112 23.3839 8.05179 23.3839 13.5844C23.39 18.008 20.69 21.7989 16.7123 23.1248ZM10.8 19.4424C10.6855 19.4665 10.577 19.4183 10.565 19.34C10.5529 19.2496 10.6313 19.1712 10.7458 19.1471C10.8603 19.135 10.9688 19.1833 10.9808 19.2616C10.9989 19.34 10.9205 19.4183 10.8 19.4424ZM10.2275 19.3882C10.2275 19.4665 10.1371 19.5328 10.0165 19.5328C9.88393 19.5449 9.79353 19.4786 9.79353 19.3882C9.79353 19.3098 9.88393 19.2435 10.0045 19.2435C10.119 19.2315 10.2275 19.2978 10.2275 19.3882ZM9.40179 19.3219C9.37768 19.4002 9.25714 19.4364 9.15469 19.4002C9.04018 19.3761 8.96183 19.2857 8.98594 19.2074C9.01005 19.129 9.13058 19.0929 9.23304 19.117C9.35357 19.1531 9.43192 19.2435 9.40179 19.3219ZM8.66049 18.9964C8.60625 19.0627 8.49174 19.0507 8.40134 18.9603C8.31094 18.8819 8.28683 18.7674 8.3471 18.7132C8.40134 18.6469 8.51585 18.6589 8.60625 18.7493C8.6846 18.8277 8.71473 18.9482 8.66049 18.9964ZM8.11205 18.448C8.05781 18.4842 7.95536 18.448 7.88906 18.3576C7.82277 18.2672 7.82277 18.1647 7.88906 18.1225C7.95536 18.0683 8.05781 18.1105 8.11205 18.2009C8.17835 18.2913 8.17835 18.3998 8.11205 18.448ZM7.72031 17.8634C7.66607 17.9176 7.57567 17.8875 7.50938 17.8272C7.44308 17.7489 7.43103 17.6585 7.48527 17.6163C7.53951 17.5621 7.62991 17.5922 7.69621 17.6525C7.7625 17.7308 7.77455 17.8212 7.72031 17.8634ZM7.31652 17.4174C7.29241 17.4717 7.21406 17.4837 7.14777 17.4415C7.06942 17.4054 7.03326 17.3391 7.05737 17.2848C7.08147 17.2487 7.14777 17.2306 7.22612 17.2607C7.30446 17.3029 7.34063 17.3692 7.31652 17.4174Z" fill="url(#paint0_linear_98_125)"/>
<defs>
<linearGradient id="paint0_linear_98_125" x1="13.5" y1="0" x2="13.5" y2="27" gradientUnits="userSpaceOnUse">
<stop stop-color="#AC75FF"/>
<stop offset="0.5" stop-color="#09ACBE"/>
<stop offset="1" stop-color="#304C9D"/>
</linearGradient>
</defs>
</svg>
