<svg width="27" height="27" viewBox="0 0 46 46" fill="none" xmlns="http://www.w3.org/2000/svg">
<path d="M42.7143 0H3.27545C1.4683 0 0 1.48884 0 3.31652V42.6835C0 44.5112 1.4683 46 3.27545 46H42.7143C44.5214 46 46 44.5112 46 42.6835V3.31652C46 1.48884 44.5214 0 42.7143 0ZM13.9027 39.4286H7.08482V17.4759H13.9129V39.4286H13.9027ZM10.4937 14.4777C8.3067 14.4777 6.54063 12.7013 6.54063 10.5246C6.54063 8.34777 8.3067 6.57143 10.4937 6.57143C12.6705 6.57143 14.4469 8.34777 14.4469 10.5246C14.4469 12.7116 12.6808 14.4777 10.4937 14.4777ZM39.4594 39.4286H32.6415V28.75C32.6415 26.2036 32.5902 22.9281 29.0991 22.9281C25.5464 22.9281 25.0022 25.7004 25.0022 28.5652V39.4286H18.1844V17.4759H24.725V20.4741H24.8174C25.7313 18.7491 27.9594 16.9317 31.2759 16.9317C38.1759 16.9317 39.4594 21.4804 39.4594 27.3946V39.4286Z" fill="black"/>
<path d="M42.7143 0H3.27545C1.4683 0 0 1.48884 0 3.31652V42.6835C0 44.5112 1.4683 46 3.27545 46H42.7143C44.5214 46 46 44.5112 46 42.6835V3.31652C46 1.48884 44.5214 0 42.7143 0ZM13.9027 39.4286H7.08482V17.4759H13.9129V39.4286H13.9027ZM10.4937 14.4777C8.3067 14.4777 6.54063 12.7013 6.54063 10.5246C6.54063 8.34777 8.3067 6.57143 10.4937 6.57143C12.6705 6.57143 14.4469 8.34777 14.4469 10.5246C14.4469 12.7116 12.6808 14.4777 10.4937 14.4777ZM39.4594 39.4286H32.6415V28.75C32.6415 26.2036 32.5902 22.9281 29.0991 22.9281C25.5464 22.9281 25.0022 25.7004 25.0022 28.5652V39.4286H18.1844V17.4759H24.725V20.4741H24.8174C25.7313 18.7491 27.9594 16.9317 31.2759 16.9317C38.1759 16.9317 39.4594 21.4804 39.4594 27.3946V39.4286Z" fill="url(#paint0_linear_98_103)"/>
<defs>
<linearGradient id="paint0_linear_98_103" x1="23" y1="0" x2="23" y2="46" gradientUnits="userSpaceOnUse">
<stop stop-color="#AC75FF"/>
<stop offset="0.5" stop-color="#09ACBE"/>
<stop offset="1" stop-color="#304C9D"/>
</linearGradient>
</defs>
</svg>
