<svg width="44" height="34" viewBox="0 0 44 34" fill="none" xmlns="http://www.w3.org/2000/svg">
<path d="M43.1664 11.3969C43.5016 11.1305 44 11.3797 44 11.8008V29.375C44 31.6523 42.1523 33.5 39.875 33.5H4.125C1.84766 33.5 0 31.6523 0 29.375V11.8094C0 11.3797 0.489844 11.1391 0.833594 11.4055C2.75859 12.9008 5.31094 14.8 14.0766 21.168C15.8898 22.4914 18.9492 25.2758 22 25.2586C25.068 25.2844 28.1875 22.4398 29.932 21.168C38.6977 14.8 41.2414 12.8922 43.1664 11.3969ZM22 22.5C23.9937 22.5344 26.8641 19.9906 28.3078 18.9422C39.7117 10.6664 40.5797 9.94453 43.2094 7.88203C43.7078 7.49531 44 6.89375 44 6.25781V4.625C44 2.34766 42.1523 0.5 39.875 0.5H4.125C1.84766 0.5 0 2.34766 0 4.625V6.25781C0 6.89375 0.292187 7.48672 0.790625 7.88203C3.42031 9.93594 4.28828 10.6664 15.6922 18.9422C17.1359 19.9906 20.0063 22.5344 22 22.5Z" fill="black"/>
<path d="M43.1664 11.3969C43.5016 11.1305 44 11.3797 44 11.8008V29.375C44 31.6523 42.1523 33.5 39.875 33.5H4.125C1.84766 33.5 0 31.6523 0 29.375V11.8094C0 11.3797 0.489844 11.1391 0.833594 11.4055C2.75859 12.9008 5.31094 14.8 14.0766 21.168C15.8898 22.4914 18.9492 25.2758 22 25.2586C25.068 25.2844 28.1875 22.4398 29.932 21.168C38.6977 14.8 41.2414 12.8922 43.1664 11.3969ZM22 22.5C23.9937 22.5344 26.8641 19.9906 28.3078 18.9422C39.7117 10.6664 40.5797 9.94453 43.2094 7.88203C43.7078 7.49531 44 6.89375 44 6.25781V4.625C44 2.34766 42.1523 0.5 39.875 0.5H4.125C1.84766 0.5 0 2.34766 0 4.625V6.25781C0 6.89375 0.292187 7.48672 0.790625 7.88203C3.42031 9.93594 4.28828 10.6664 15.6922 18.9422C17.1359 19.9906 20.0063 22.5344 22 22.5Z" fill="url(#paint0_linear_98_109)"/>
<defs>
<linearGradient id="paint0_linear_98_109" x1="22" y1="0.5" x2="22" y2="33.5" gradientUnits="userSpaceOnUse">
<stop stop-color="#AC75FF"/>
<stop offset="0.5" stop-color="#09ACBE"/>
<stop offset="1" stop-color="#304C9D"/>
</linearGradient>
</defs>
</svg>
