<svg width="40" height="62" viewBox="0 0 40 62" fill="none" xmlns="http://www.w3.org/2000/svg">
<path d="M30.0015 20.9455C32.6532 20.9455 35.1964 19.8855 37.0715 17.9988C38.9466 16.1121 40 13.5532 40 10.885C40 8.21683 38.9466 5.65792 37.0715 3.77122C35.1964 1.88452 32.6532 0.824585 30.0015 0.824585L10.0044 0.824585C7.35417 0.824585 4.8125 1.8839 2.9385 3.76949C1.06451 5.65509 0.0117175 8.2125 0.0117175 10.8791C0.0117175 13.5458 1.06451 16.1032 2.9385 17.9888C4.8125 19.8744 7.35417 20.9337 10.0044 20.9337C7.35262 20.9337 4.80945 21.9936 2.93436 23.8803C1.05927 25.767 0.00586018 28.3259 0.00586018 30.9941C0.00586018 33.6623 1.05927 36.2212 2.93436 38.1079C4.80945 39.9946 7.35262 41.0546 10.0044 41.0546C8.02687 41.0534 6.09341 41.6423 4.44852 42.7468C2.80363 43.8513 1.52118 45.4217 0.76334 47.2596C0.00550514 49.0975 -0.193677 51.1202 0.190983 53.0719C0.575642 55.0237 1.52687 56.8168 2.92437 58.2247C4.32187 59.6325 6.10288 60.5917 8.04218 60.981C9.98148 61.3703 11.992 61.1723 13.8194 60.4119C15.6468 59.6515 17.2091 58.363 18.3088 56.7092C19.4084 55.0554 19.9959 53.1107 19.9971 51.1209V20.9455H30.0015ZM30.0015 20.9455C28.0251 20.9455 26.0931 21.5352 24.4498 22.64C22.8065 23.7448 21.5258 25.3151 20.7694 27.1523C20.0131 28.9895 19.8152 31.0112 20.2008 32.9616C20.5864 34.912 21.5381 36.7035 22.9356 38.1097C24.3331 39.5158 26.1136 40.4734 28.052 40.8614C29.9904 41.2493 31.9996 41.0502 33.8255 40.2892C35.6514 39.5282 37.2121 38.2395 38.3101 36.586C39.4081 34.9326 39.9941 32.9886 39.9941 31C39.9938 28.3335 38.9409 25.7763 37.067 23.8907C35.1931 22.0052 32.6516 20.9458 30.0015 20.9455Z" fill="white"/>
<path d="M30.0015 20.9455C32.6532 20.9455 35.1964 19.8855 37.0715 17.9988C38.9466 16.1121 40 13.5532 40 10.885C40 8.21683 38.9466 5.65792 37.0715 3.77122C35.1964 1.88452 32.6532 0.824585 30.0015 0.824585L10.0044 0.824585C7.35417 0.824585 4.8125 1.8839 2.9385 3.76949C1.06451 5.65509 0.0117175 8.2125 0.0117175 10.8791C0.0117175 13.5458 1.06451 16.1032 2.9385 17.9888C4.8125 19.8744 7.35417 20.9337 10.0044 20.9337C7.35262 20.9337 4.80945 21.9936 2.93436 23.8803C1.05927 25.767 0.00586018 28.3259 0.00586018 30.9941C0.00586018 33.6623 1.05927 36.2212 2.93436 38.1079C4.80945 39.9946 7.35262 41.0546 10.0044 41.0546C8.02687 41.0534 6.09341 41.6423 4.44852 42.7468C2.80363 43.8513 1.52118 45.4217 0.76334 47.2596C0.00550514 49.0975 -0.193677 51.1202 0.190983 53.0719C0.575642 55.0237 1.52687 56.8168 2.92437 58.2247C4.32187 59.6325 6.10288 60.5917 8.04218 60.981C9.98148 61.3703 11.992 61.1723 13.8194 60.4119C15.6468 59.6515 17.2091 58.363 18.3088 56.7092C19.4084 55.0554 19.9959 53.1107 19.9971 51.1209V20.9455H30.0015ZM30.0015 20.9455C28.0251 20.9455 26.0931 21.5352 24.4498 22.64C22.8065 23.7448 21.5258 25.3151 20.7694 27.1523C20.0131 28.9895 19.8152 31.0112 20.2008 32.9616C20.5864 34.912 21.5381 36.7035 22.9356 38.1097C24.3331 39.5158 26.1136 40.4734 28.052 40.8614C29.9904 41.2493 31.9996 41.0502 33.8255 40.2892C35.6514 39.5282 37.2121 38.2395 38.3101 36.586C39.4081 34.9326 39.9941 32.9886 39.9941 31C39.9938 28.3335 38.9409 25.7763 37.067 23.8907C35.1931 22.0052 32.6516 20.9458 30.0015 20.9455Z" fill="url(#paint0_linear_87_214)"/>
<defs>
<linearGradient id="paint0_linear_87_214" x1="20" y1="0.824585" x2="20" y2="61.1755" gradientUnits="userSpaceOnUse">
<stop stop-color="#AC75FF"/>
<stop offset="0.5" stop-color="#09ACBE"/>
<stop offset="1" stop-color="#304C9D"/>
</linearGradient>
</defs>
</svg>
