<svg width="66" height="66" viewBox="0 0 66 66" fill="none" xmlns="http://www.w3.org/2000/svg">
<path d="M7.14557 21.4766L20.6516 58.4686C11.204 53.8912 4.69718 44.2041 4.69718 33C4.69718 28.8883 5.57541 25.0028 7.14557 21.4766ZM52.1081 31.5762C52.1081 28.0766 50.8573 25.6549 49.7795 23.7653C48.3424 21.4367 46.9984 19.454 46.9984 17.1254C46.9984 14.5173 48.9678 12.0956 51.7488 12.0956C51.8686 12.0956 51.9883 12.1089 52.1214 12.1222C47.0783 7.50484 40.3718 4.68387 33 4.68387C23.1133 4.68387 14.4109 9.75364 9.34114 17.4448C10.0065 17.4714 10.6319 17.4847 11.1641 17.4847C14.1182 17.4847 18.7089 17.1254 18.7089 17.1254C20.2391 17.0323 20.4121 19.2811 18.8952 19.454C18.8952 19.454 17.3649 19.627 15.6617 19.7202L25.9742 50.3783L32.175 31.8024L27.7706 19.7202C26.2403 19.627 24.8032 19.454 24.8032 19.454C23.273 19.3609 23.4593 17.0323 24.9762 17.1254C24.9762 17.1254 29.6468 17.4847 32.4278 17.4847C35.3819 17.4847 39.9726 17.1254 39.9726 17.1254C41.5029 17.0323 41.6758 19.2811 40.1589 19.454C40.1589 19.454 38.6287 19.627 36.9254 19.7202L47.1581 50.1521L49.9791 40.7178C51.1767 36.8057 52.1081 33.998 52.1081 31.5762ZM33.4924 35.475L25.0028 60.1585C27.5444 60.9037 30.219 61.3162 33 61.3162C36.3 61.3162 39.4537 60.744 42.3944 59.7061C42.3145 59.5863 42.248 59.4533 42.1948 59.3202L33.4924 35.475ZM57.8432 19.4141C57.9629 20.319 58.0295 21.277 58.0295 22.3282C58.0295 25.2024 57.4972 28.4226 55.8738 32.4678L47.2246 57.4706C55.6476 52.5605 61.3029 43.4456 61.3029 33C61.3029 28.0766 60.0521 23.446 57.8432 19.4141ZM66 33C66 51.2033 51.19 66 33 66C14.7968 66 0 51.19 0 33C0 14.7968 14.7968 0 33 0C51.19 0 66 14.7968 66 33ZM64.4831 33C64.4831 15.6351 50.3516 1.51694 33 1.51694C15.6351 1.51694 1.51694 15.6351 1.51694 33C1.51694 50.365 15.6484 64.4831 33 64.4831C50.365 64.4831 64.4831 50.365 64.4831 33Z" fill="white"/>
<path d="M7.14557 21.4766L20.6516 58.4686C11.204 53.8912 4.69718 44.2041 4.69718 33C4.69718 28.8883 5.57541 25.0028 7.14557 21.4766ZM52.1081 31.5762C52.1081 28.0766 50.8573 25.6549 49.7795 23.7653C48.3424 21.4367 46.9984 19.454 46.9984 17.1254C46.9984 14.5173 48.9678 12.0956 51.7488 12.0956C51.8686 12.0956 51.9883 12.1089 52.1214 12.1222C47.0783 7.50484 40.3718 4.68387 33 4.68387C23.1133 4.68387 14.4109 9.75364 9.34114 17.4448C10.0065 17.4714 10.6319 17.4847 11.1641 17.4847C14.1182 17.4847 18.7089 17.1254 18.7089 17.1254C20.2391 17.0323 20.4121 19.2811 18.8952 19.454C18.8952 19.454 17.3649 19.627 15.6617 19.7202L25.9742 50.3783L32.175 31.8024L27.7706 19.7202C26.2403 19.627 24.8032 19.454 24.8032 19.454C23.273 19.3609 23.4593 17.0323 24.9762 17.1254C24.9762 17.1254 29.6468 17.4847 32.4278 17.4847C35.3819 17.4847 39.9726 17.1254 39.9726 17.1254C41.5029 17.0323 41.6758 19.2811 40.1589 19.454C40.1589 19.454 38.6287 19.627 36.9254 19.7202L47.1581 50.1521L49.9791 40.7178C51.1767 36.8057 52.1081 33.998 52.1081 31.5762ZM33.4924 35.475L25.0028 60.1585C27.5444 60.9037 30.219 61.3162 33 61.3162C36.3 61.3162 39.4537 60.744 42.3944 59.7061C42.3145 59.5863 42.248 59.4533 42.1948 59.3202L33.4924 35.475ZM57.8432 19.4141C57.9629 20.319 58.0295 21.277 58.0295 22.3282C58.0295 25.2024 57.4972 28.4226 55.8738 32.4678L47.2246 57.4706C55.6476 52.5605 61.3029 43.4456 61.3029 33C61.3029 28.0766 60.0521 23.446 57.8432 19.4141ZM66 33C66 51.2033 51.19 66 33 66C14.7968 66 0 51.19 0 33C0 14.7968 14.7968 0 33 0C51.19 0 66 14.7968 66 33ZM64.4831 33C64.4831 15.6351 50.3516 1.51694 33 1.51694C15.6351 1.51694 1.51694 15.6351 1.51694 33C1.51694 50.365 15.6484 64.4831 33 64.4831C50.365 64.4831 64.4831 50.365 64.4831 33Z" fill="url(#paint0_linear_87_199)"/>
<defs>
<linearGradient id="paint0_linear_87_199" x1="33" y1="0" x2="33" y2="66" gradientUnits="userSpaceOnUse">
<stop stop-color="#AC75FF"/>
<stop offset="0.215" stop-color="#668DE3"/>
<stop offset="0.5" stop-color="#09ACBE"/>
<stop offset="1" stop-color="#304C9D"/>
</linearGradient>
</defs>
</svg>
